<svg width="16" height="16" viewBox="0 0 16 16" fill="none" xmlns="http://www.w3.org/2000/svg">
<path d="M5.87329 1.33337L3.45996 3.75337" stroke="#1C1C1C" stroke-miterlimit="10" stroke-linecap="round" stroke-linejoin="round"/>
<path d="M10.1267 1.33337L12.54 3.75337" stroke="#1C1C1C" stroke-miterlimit="10" stroke-linecap="round" stroke-linejoin="round"/>
<path d="M1.33325 5.23336C1.33325 4.00002 1.99325 3.90002 2.81325 3.90002H13.1866C14.0066 3.90002 14.6666 4.00002 14.6666 5.23336C14.6666 6.66669 14.0066 6.56669 13.1866 6.56669H2.81325C1.99325 6.56669 1.33325 6.66669 1.33325 5.23336Z" stroke="#1C1C1C"/>
<path d="M6.50659 9.33337V11.7" stroke="#1C1C1C" stroke-linecap="round"/>
<path d="M9.57324 9.33337V11.7" stroke="#1C1C1C" stroke-linecap="round"/>
<path d="M2.33325 6.66663L3.27325 12.4266C3.48659 13.72 3.99992 14.6666 5.90658 14.6666H9.92659C11.9999 14.6666 12.3066 13.76 12.5466 12.5066L13.6666 6.66663" stroke="#1C1C1C" stroke-linecap="round"/>
</svg>
